<svg width="24" height="24" viewBox="0 0 24 24" fill="none" xmlns="http://www.w3.org/2000/svg">
<path d="M16.2 22H7.8C4.5968 22 2 19.4032 2 16.2V7.80002C2 4.59672 4.5968 2.00002 7.8 2.00002H16.2C19.4032 2.00002 22 4.59672 22 7.80002V16.2C22 19.4032 19.4032 22 16.2 22ZM16.4 20C18.3882 20 20 18.3882 20 16.4V7.60002C20 5.61182 18.3882 4.00002 16.4 4.00002H7.6C5.6118 4.00002 4 5.61182 4 7.60002V16.4C4 18.3882 5.6118 20 7.6 20H16.4ZM6.75 18.5C6.0596 18.5 5.5 17.9404 5.5 17.25C5.5 16.5597 6.0596 16 6.75 16C7.4404 16 8 16.5597 8 17.25C8 17.9404 7.4404 18.5 6.75 18.5ZM12 17C9.2386 17 7 14.7614 7 12C7 9.23862 9.2386 7.00002 12 7.00002C14.7614 7.00002 17 9.23862 17 12C17 14.7614 14.7614 17 12 17ZM12 15C13.6569 15 15 13.6568 15 12C15 10.3431 13.6569 9.00002 12 9.00002C10.3431 9.00002 9 10.3431 9 12C9 13.6568 10.3431 15 12 15Z" fill="white"/>
</svg>
