<svg width="24" height="24" viewBox="0 0 24 24" fill="none" xmlns="http://www.w3.org/2000/svg">
<path d="M1.08158 17.9876C1.85118 17.6463 2.67838 17.4156 3.54638 17.3119C2.66048 17.843 1.97988 18.684 1.65948 19.6862C2.48878 19.1944 3.40718 18.8372 4.38478 18.6448C5.16758 19.4789 6.28288 20 7.51728 20C9.88738 20 11.8091 18.0785 11.8091 15.7085C11.8091 15.3721 11.7711 15.0445 11.6979 14.7304C15.2647 14.9094 18.427 16.618 20.5437 19.2145C20.9131 18.5806 21.1248 17.8434 21.1248 17.0569C21.1248 15.568 20.3671 14.2544 19.2155 13.4847C19.919 13.5071 20.5808 13.7001 21.1594 14.0215C21.1598 14.0036 21.1598 13.9857 21.1598 13.9676C21.1598 11.8882 19.6804 10.1537 17.7172 9.7594C18.0773 9.6613 18.4564 9.6088 18.8478 9.6088C19.1244 9.6088 19.3932 9.6358 19.6553 9.6858C19.1092 7.9809 17.5242 6.74 15.6462 6.7055C17.115 5.5543 18.9655 4.8682 20.9762 4.8682C21.3227 4.8682 21.6643 4.8886 22 4.9283C20.1007 3.7106 17.8449 3 15.4213 3C7.52738 3 3.21058 9.5395 3.21058 15.2108C3.21058 15.3969 3.21478 15.582 3.22308 15.7661C2.38448 16.3711 1.65688 17.127 1.08158 17.9876Z" fill="white"/>
</svg>
